<svg xmlns="http://www.w3.org/2000/svg" viewBox="0 0 32 32" width="32" height="32">
  <!-- Fondo circular -->
  <circle cx="16" cy="16" r="15" fill="#2D1B69" stroke="#FFD23F" stroke-width="2"/>
  
  <!-- Calavera base -->
  <ellipse cx="16" cy="18" rx="10" ry="11" fill="#F8F8F8"/>
  
  <!-- Ojos -->
  <circle cx="12" cy="15" r="2.5" fill="#2D1B69"/>
  <circle cx="20" cy="15" r="2.5" fill="#2D1B69"/>
  
  <!-- Decoración en los ojos (flores) -->
  <circle cx="12" cy="15" r="1" fill="#FF6B35"/>
  <circle cx="20" cy="15" r="1" fill="#FF6B35"/>
  
  <!-- Nariz (corazón invertido) -->
  <path d="M16 18 L14 20 L16 22 L18 20 Z" fill="#2D1B69"/>
  
  <!-- Sonrisa -->
  <path d="M12 24 Q16 26 20 24" stroke="#2D1B69" stroke-width="1.5" fill="none" stroke-linecap="round"/>
  
  <!-- Dientes -->
  <rect x="14" y="24" width="1" height="2" fill="#2D1B69"/>
  <rect x="16" y="24" width="1" height="2" fill="#2D1B69"/>
  <rect x="18" y="24" width="1" height="2" fill="#2D1B69"/>
  
  <!-- Decoraciones florales en la frente -->
  <circle cx="13" cy="12" r="1" fill="#FF6B35"/>
  <circle cx="16" cy="11" r="1" fill="#FFD23F"/>
  <circle cx="19" cy="12" r="1" fill="#FF6B35"/>
  
  <!-- Pequeños pétalos -->
  <circle cx="12.5" cy="11.5" r="0.3" fill="#FFD23F"/>
  <circle cx="13.5" cy="11.5" r="0.3" fill="#FFD23F"/>
  <circle cx="18.5" cy="11.5" r="0.3" fill="#FFD23F"/>
  <circle cx="19.5" cy="11.5" r="0.3" fill="#FFD23F"/>
</svg>